<?xml version="1.0" encoding="utf-8"?>
<!-- Generator: Adobe Illustrator 28.0.0, SVG Export Plug-In . SVG Version: 6.00 Build 0)  -->
<svg version="1.1"
	 id="Layer_1" text-rendering="geometricPrecision" image-rendering="optimizeQuality" shape-rendering="geometricPrecision"
	 xmlns="http://www.w3.org/2000/svg" xmlns:xlink="http://www.w3.org/1999/xlink" x="0px" y="0px" viewBox="0 0 512 512"
	 style="enable-background:new 0 0 512 512;" xml:space="preserve">
<style type="text/css">
	.st0{fill-rule:evenodd;clip-rule:evenodd;}
</style>
<path class="st0" d="M125,320.4h293.9c29.5-56.8,43.9-129.7,39.4-219.2c-53.1,4.9-119-19.6-187.5-63C216,80.7,152.9,101.9,84,98.3
	C81.6,190.8,96.4,264.1,125,320.4L125,320.4z M453,321c14.8,2.9,26,16,26,31.5v127.5c0,17.6-14.5,32.1-32.1,32.1H95.9
	c-17.6,0-32.1-14.4-32.1-32.1V352.5c0-15.9,11.9-29.4,27.3-31.7c-29.2-65-43.7-148.1-41-252.5c75.2,3.9,149-12.3,220.6-67.9
	C353.4,52.8,428,77.6,492.1,71.7C497.1,172.9,483.2,255.5,453,321z M211.2,177.4h6v-13.9c0-15.4,6.1-29.4,15.8-39.6
	c9.9-10.3,23.4-16.6,38.4-16.6c15,0,28.6,6.4,38.4,16.6c9.8,10.2,15.8,24.2,15.8,39.6v13.9h6c4.9,0,8.9,4,8.9,8.8v93.5
	c0,4.9-4,8.9-8.9,8.9H211.2c-4.9,0-8.8-4-8.8-8.9v-93.5C202.4,181.4,206.3,177.4,211.2,177.4z M234,177.4h75v-13.9
	c0-10.9-4.3-20.8-11.1-28c-6.8-7.1-16.1-11.5-26.4-11.5c-10.2,0-19.6,4.4-26.4,11.5c-6.9,7.1-11.1,17.1-11.1,28L234,177.4L234,177.4
	z M264.2,237.1l-9.5,25h33.6l-8.8-25.4c5.6-2.9,9.5-8.7,9.5-15.5c0-9.6-7.8-17.4-17.4-17.4c-9.6,0-17.4,7.8-17.4,17.4
	C254,228.3,258.2,234.4,264.2,237.1L264.2,237.1z M154.8,397.7l-3.6-20.7c11.7-3.5,23.3-5.3,34.8-5.3c4.6,0,8.5,0.1,11.6,0.4
	c3.1,0.3,6.3,1,9.6,2.1c3.3,1.1,6,2.6,7.9,4.6c4.5,4.4,6.7,11.2,6.7,20.4s-2.6,15.9-7.8,20.3c-5.2,4.3-16.1,9.3-32.7,15v3.9h39.1
	v22.2h-71.2v-17.3c0-5.2,1-10.1,2.9-14.8c1.2-2.7,4.1-5.9,8.7-9.7c2.5-2.1,5.9-4.2,10.1-6.1c4.2-1.9,8.2-3.8,11.9-5.5
	c3.7-1.7,6.8-3.1,9.1-4.2v-7.5c-4.2-0.5-8-0.7-11.5-0.7C172,394.7,163.4,395.7,154.8,397.7L154.8,397.7z M295.3,430.8h-23.6v29.8
	H244v-86.7h56.9l-3.5,22.2h-25.7v14h23.6V430.8L295.3,430.8z M333.9,460.6h-28.1l22.5-86.7h42.9l22.5,86.7h-28.1l-3.2-13.7h-25.2
	L333.9,460.6z M346,400.5l-3.9,24.3h15.1l-3.8-24.3H346L346,400.5z"/>
</svg>
